<svg xmlns="http://www.w3.org/2000/svg" viewBox="0 0 64 64">
  <defs>
    <linearGradient id="gold" x1="0" x2="0" y1="0" y2="1">
      <stop offset="0%" stop-color="#ddc67d" />
      <stop offset="100%" stop-color="#9f8648" />
    </linearGradient>
    <radialGradient id="blueCore" cx="50%" cy="45%" r="60%">
      <stop offset="0%" stop-color="#9ab6d6" />
      <stop offset="100%" stop-color="#5478a2" />
    </radialGradient>
  </defs>
  <circle cx="32" cy="32" r="28" fill="url(#gold)" />
  <circle cx="32" cy="32" r="26" fill="#cdb875" />
  <circle cx="32" cy="32" r="24" fill="#36557a" />
  <circle cx="32" cy="32" r="22" fill="url(#blueCore)" />
  <g fill="#d7e5f4">
    <polygon points="32,9 35,30 32,55 29,30" />
    <polygon points="9,32 30,29 55,32 30,35" />
    <polygon points="15.5,15.5 31,29 48.5,48.5 29,31" />
    <polygon points="48.5,15.5 35,31 15.5,48.5 31,29" />
  </g>
  <g fill="#f2f7fc">
    <polygon points="32,14 34,30 32,50 30,30" />
    <polygon points="14,32 30,30 50,32 30,34" />
    <polygon points="20,20 31,29.5 44,44 29.5,31" />
    <polygon points="44,20 34.5,31 20,44 31,29.5" />
  </g>
  <circle cx="32" cy="32" r="2.9" fill="url(#gold)" />
  <circle cx="32" cy="32" r="1.4" fill="#f8f0d2" />
</svg>
